<svg width="24" height="24" viewBox="0 0 16 16" style="fill: rgb(194, 58, 58);"><g><rect width="16" height="16" rx="4"></rect><path d="M11.177 9.139c0 .132-.009.261-.023.39-.176 1.959-1.5 3.263-3.336 3.263-1.781 0-3.017-1.232-3.33-3.106a3.407 3.407 0 01-.046-.547l.012-.229c.043-.771.39-1.577.909-2.087l.363-.358.024.509c.012.236.128.458.337.642.107.094.365.195.676.195.161 0 .314-.028.442-.08a.596.596 0 00.397-.532c.023-.325-.107-.486-.272-.69-.184-.226-.413-.507-.534-1.13-.15-.778.287-1.514 1.23-2.073l.482-.285-.146.54a.995.995 0 00-.032.213c-.02.567.444 1.273 1.417 2.157 1.242 1.13 1.419 2.14 1.423 2.98l.007.228z" fill="#FFF"></path></g></svg>