<svg xmlns="http://www.w3.org/2000/svg" width="10" height="14" viewBox="682 3068 10 14"><path d="M691.42 3076.495c0 .173-.012.343-.031.511-.23 2.572-1.969 4.283-4.378 4.283-2.338 0-3.96-1.617-4.371-4.076a4.472 4.472 0 0 1-.06-.718l.016-.3c.056-1.013.512-2.07 1.193-2.74l.477-.47.031.668c.015.31.168.601.442.843.141.123.479.256.888.256.211 0 .411-.037.58-.105.317-.13.497-.372.52-.698.031-.427-.14-.638-.357-.905-.241-.298-.542-.667-.7-1.485-.196-1.02.377-1.986 1.615-2.72l.632-.374-.192.709c-.024.09-.038.185-.042.28-.025.744.583 1.67 1.86 2.83 1.63 1.483 1.862 2.809 1.867 3.912l.01.299z" fill="#ffffff" fill-rule="evenodd"></path></svg>